<svg xmlns="http://www.w3.org/2000/svg" viewBox="0 0 1100 720" font-family="'Georgia', 'Times New Roman', serif">
  <defs>
    <!-- Layer gradient fills -->
    <linearGradient id="layer1" x1="0" y1="0" x2="0" y2="1">
      <stop offset="0%" stop-color="#e8d4a0"/>
      <stop offset="100%" stop-color="#d4bc82"/>
    </linearGradient>
    <linearGradient id="layer2" x1="0" y1="0" x2="0" y2="1">
      <stop offset="0%" stop-color="#b8c4a0"/>
      <stop offset="100%" stop-color="#9aad82"/>
    </linearGradient>
    <linearGradient id="layer3" x1="0" y1="0" x2="0" y2="1">
      <stop offset="0%" stop-color="#a0b4c4"/>
      <stop offset="100%" stop-color="#829aad"/>
    </linearGradient>
    <linearGradient id="layer4" x1="0" y1="0" x2="0" y2="1">
      <stop offset="0%" stop-color="#c4a0b4"/>
      <stop offset="100%" stop-color="#ad829a"/>
    </linearGradient>
    <linearGradient id="layer5" x1="0" y1="0" x2="0" y2="1">
      <stop offset="0%" stop-color="#8a9ab0"/>
      <stop offset="100%" stop-color="#6e7e94"/>
    </linearGradient>

    <!-- Arrowhead markers -->
    <marker id="arrowG0" markerWidth="10" markerHeight="7" refX="9" refY="3.5" orient="auto" markerUnits="strokeWidth">
      <polygon points="0 0, 10 3.5, 0 7" fill="#c0392b"/>
    </marker>
    <marker id="arrowG0blue" markerWidth="10" markerHeight="7" refX="9" refY="3.5" orient="auto" markerUnits="strokeWidth">
      <polygon points="0 0, 10 3.5, 0 7" fill="#2980b9"/>
    </marker>
    <marker id="arrowWave" markerWidth="8" markerHeight="6" refX="7" refY="3" orient="auto" markerUnits="strokeWidth">
      <polygon points="0 0, 8 3, 0 6" fill="#2c3e50"/>
    </marker>

    <!-- Glow filter for T0 cube -->
    <filter id="glowT0" x="-20%" y="-20%" width="140%" height="140%">
      <feGaussianBlur stdDeviation="3" result="coloredBlur"/>
      <feMerge>
        <feMergeNode in="coloredBlur"/>
        <feMergeNode in="SourceGraphic"/>
      </feMerge>
    </filter>
  </defs>

  <!-- Background -->
  <rect width="1100" height="720" fill="#faf8f0"/>

  <!-- Title -->
  <text x="550" y="32" text-anchor="middle" font-size="18" font-weight="bold" fill="#1a1a2e">
    Cubic Heterogeneities Superimposed on a Layered Medium
  </text>
  <text x="550" y="54" text-anchor="middle" font-size="13" fill="#555" font-style="italic">
    Intra-site scattering (T&#x2080;) vs. inter-site propagation (G&#x2080;)
  </text>

  <!-- ===== LAYERED MEDIUM ===== -->
  <!--
    Cube grid: 8 rows, step=60 (55px cube + 5px gap), first row top at y=10.
    Row tops:    10,  70, 130, 190, 250, 310, 370, 430
    Row bottoms: 65, 125, 185, 245, 305, 365, 425, 485

    Layer boundaries sit at the MIDPOINT of each inter-row gap:
      After rows 0-1:  interface at y=128  (gap 125..130)
      After rows 2-3:  interface at y=248  (gap 245..250)
      After row  4:    interface at y=308  (gap 305..310)
      After rows 5-6:  interface at y=428  (gap 425..430)

    Allocation: Layer 1 = 2 rows, Layer 2 = 2 rows, Layer 3 = 1 row,
                Layer 4 = 2 rows, Layer 5 = 1 row.
  -->
  <g transform="translate(50, 75)">

    <!-- Layer rectangles (boundaries between cube rows, never through them) -->
    <rect x="0" y="0"   width="520" height="128" fill="url(#layer1)" stroke="#8a7a5a" stroke-width="0.5"/>
    <rect x="0" y="128" width="520" height="120" fill="url(#layer2)" stroke="#6a8a5a" stroke-width="0.5"/>
    <rect x="0" y="248" width="520" height="60"  fill="url(#layer3)" stroke="#5a6a8a" stroke-width="0.5"/>
    <rect x="0" y="308" width="520" height="120" fill="url(#layer4)" stroke="#8a5a6a" stroke-width="0.5"/>
    <rect x="0" y="428" width="520" height="62"  fill="url(#layer5)" stroke="#5a6a7a" stroke-width="0.5"/>

    <!-- Layer labels (right side, vertically centred in each layer) -->
    <text x="535" y="68"  font-size="11" fill="#5a4a2a" font-style="italic">Layer 1: &#x03B1;&#x2081;, &#x03B2;&#x2081;, &#x03C1;&#x2081;</text>
    <text x="535" y="192" font-size="11" fill="#3a5a2a" font-style="italic">Layer 2: &#x03B1;&#x2082;, &#x03B2;&#x2082;, &#x03C1;&#x2082;</text>
    <text x="535" y="280" font-size="11" fill="#2a3a5a" font-style="italic">Layer 3: &#x03B1;&#x2083;, &#x03B2;&#x2083;, &#x03C1;&#x2083;</text>
    <text x="535" y="372" font-size="11" fill="#5a2a3a" font-style="italic">Layer 4: &#x03B1;&#x2084;, &#x03B2;&#x2084;, &#x03C1;&#x2084;</text>
    <text x="535" y="462" font-size="11" fill="#3a4a5a" font-style="italic">Layer 5: &#x03B1;&#x2085;, &#x03B2;&#x2085;, &#x03C1;&#x2085;</text>

    <!-- Interface dashed lines (in the gaps between cube rows) -->
    <line x1="0" y1="128" x2="520" y2="128" stroke="#444" stroke-width="1.5" stroke-dasharray="4,3"/>
    <line x1="0" y1="248" x2="520" y2="248" stroke="#444" stroke-width="1.5" stroke-dasharray="4,3"/>
    <line x1="0" y1="308" x2="520" y2="308" stroke="#444" stroke-width="1.5" stroke-dasharray="4,3"/>
    <line x1="0" y1="428" x2="520" y2="428" stroke="#444" stroke-width="1.5" stroke-dasharray="4,3"/>

    <!-- ===== CUBIC GRID (8 rows x 8 cols, step=60) ===== -->

    <!-- Row 0 (Layer 1, top) -->
    <rect x="20"  y="10" width="55" height="55" fill="rgba(180,120,80,0.35)" stroke="#6a4a2a" stroke-width="1"/>
    <rect x="80"  y="10" width="55" height="55" fill="rgba(200,140,90,0.30)" stroke="#6a4a2a" stroke-width="1"/>
    <rect x="140" y="10" width="55" height="55" fill="rgba(170,110,70,0.40)" stroke="#6a4a2a" stroke-width="1"/>
    <rect x="200" y="10" width="55" height="55" fill="rgba(190,130,85,0.30)" stroke="#6a4a2a" stroke-width="1"/>
    <rect x="260" y="10" width="55" height="55" fill="rgba(160,100,65,0.45)" stroke="#6a4a2a" stroke-width="1"/>
    <rect x="320" y="10" width="55" height="55" fill="rgba(180,120,80,0.30)" stroke="#6a4a2a" stroke-width="1"/>
    <rect x="380" y="10" width="55" height="55" fill="rgba(200,140,90,0.35)" stroke="#6a4a2a" stroke-width="1"/>
    <rect x="440" y="10" width="55" height="55" fill="rgba(170,110,70,0.30)" stroke="#6a4a2a" stroke-width="1"/>

    <!-- Row 1 (Layer 1, bottom) -->
    <rect x="20"  y="70" width="55" height="55" fill="rgba(190,130,85,0.35)" stroke="#6a4a2a" stroke-width="1"/>
    <rect x="80"  y="70" width="55" height="55" fill="rgba(170,110,70,0.30)" stroke="#6a4a2a" stroke-width="1"/>
    <rect x="140" y="70" width="55" height="55" fill="rgba(200,140,90,0.40)" stroke="#6a4a2a" stroke-width="1"/>
    <rect x="200" y="70" width="55" height="55" fill="rgba(180,120,80,0.35)" stroke="#6a4a2a" stroke-width="1"/>
    <rect x="260" y="70" width="55" height="55" fill="rgba(200,140,90,0.30)" stroke="#6a4a2a" stroke-width="1"/>
    <rect x="320" y="70" width="55" height="55" fill="rgba(160,100,65,0.40)" stroke="#6a4a2a" stroke-width="1"/>
    <rect x="380" y="70" width="55" height="55" fill="rgba(180,120,80,0.35)" stroke="#6a4a2a" stroke-width="1"/>
    <rect x="440" y="70" width="55" height="55" fill="rgba(190,130,85,0.30)" stroke="#6a4a2a" stroke-width="1"/>

    <!-- Row 2 (Layer 2, top) -->
    <rect x="20"  y="130" width="55" height="55" fill="rgba(100,160,90,0.35)" stroke="#4a6a3a" stroke-width="1"/>
    <rect x="80"  y="130" width="55" height="55" fill="rgba(120,180,100,0.30)" stroke="#4a6a3a" stroke-width="1"/>
    <rect x="140" y="130" width="55" height="55" fill="rgba(90,150,80,0.40)" stroke="#4a6a3a" stroke-width="1"/>
    <rect x="200" y="130" width="55" height="55" fill="rgba(110,170,95,0.35)" stroke="#4a6a3a" stroke-width="1"/>
    <rect x="260" y="130" width="55" height="55" fill="rgba(80,140,75,0.45)" stroke="#4a6a3a" stroke-width="1"/>
    <rect x="320" y="130" width="55" height="55" fill="rgba(100,160,90,0.30)" stroke="#4a6a3a" stroke-width="1"/>
    <rect x="380" y="130" width="55" height="55" fill="rgba(120,180,100,0.35)" stroke="#4a6a3a" stroke-width="1"/>
    <rect x="440" y="130" width="55" height="55" fill="rgba(90,150,80,0.30)" stroke="#4a6a3a" stroke-width="1"/>

    <!-- Row 3 (Layer 2, bottom) -->
    <rect x="20"  y="190" width="55" height="55" fill="rgba(90,150,80,0.35)" stroke="#4a6a3a" stroke-width="1"/>
    <rect x="80"  y="190" width="55" height="55" fill="rgba(110,170,95,0.40)" stroke="#4a6a3a" stroke-width="1"/>
    <rect x="140" y="190" width="55" height="55" fill="rgba(80,130,70,0.35)" stroke="#4a6a3a" stroke-width="1"/>
    <rect x="200" y="190" width="55" height="55" fill="rgba(100,150,85,0.30)" stroke="#4a6a3a" stroke-width="1"/>
    <rect x="260" y="190" width="55" height="55" fill="rgba(120,170,100,0.45)" stroke="#4a6a3a" stroke-width="1"/>
    <rect x="320" y="190" width="55" height="55" fill="rgba(90,140,80,0.30)" stroke="#4a6a3a" stroke-width="1"/>
    <rect x="380" y="190" width="55" height="55" fill="rgba(110,160,95,0.35)" stroke="#4a6a3a" stroke-width="1"/>
    <rect x="440" y="190" width="55" height="55" fill="rgba(80,130,70,0.40)" stroke="#4a6a3a" stroke-width="1"/>

    <!-- Row 4 (Layer 3, single row) -->
    <rect x="20"  y="250" width="55" height="55" fill="rgba(80,120,160,0.35)" stroke="#3a4a6a" stroke-width="1"/>
    <rect x="80"  y="250" width="55" height="55" fill="rgba(100,140,180,0.30)" stroke="#3a4a6a" stroke-width="1"/>
    <rect x="140" y="250" width="55" height="55" fill="rgba(70,110,150,0.40)" stroke="#3a4a6a" stroke-width="1"/>
    <rect x="200" y="250" width="55" height="55" fill="rgba(90,130,170,0.35)" stroke="#3a4a6a" stroke-width="1"/>
    <rect x="260" y="250" width="55" height="55" fill="rgba(60,100,140,0.45)" stroke="#3a4a6a" stroke-width="1"/>
    <rect x="320" y="250" width="55" height="55" fill="rgba(80,120,160,0.30)" stroke="#3a4a6a" stroke-width="1"/>
    <rect x="380" y="250" width="55" height="55" fill="rgba(100,140,180,0.35)" stroke="#3a4a6a" stroke-width="1"/>
    <rect x="440" y="250" width="55" height="55" fill="rgba(70,110,150,0.30)" stroke="#3a4a6a" stroke-width="1"/>

    <!-- Row 5 (Layer 4, top) -->
    <rect x="20"  y="310" width="55" height="55" fill="rgba(160,80,110,0.35)" stroke="#6a3a4a" stroke-width="1"/>
    <rect x="80"  y="310" width="55" height="55" fill="rgba(180,100,130,0.30)" stroke="#6a3a4a" stroke-width="1"/>
    <rect x="140" y="310" width="55" height="55" fill="rgba(150,70,100,0.40)" stroke="#6a3a4a" stroke-width="1"/>
    <rect x="200" y="310" width="55" height="55" fill="rgba(170,90,120,0.35)" stroke="#6a3a4a" stroke-width="1"/>
    <rect x="260" y="310" width="55" height="55" fill="rgba(140,60,90,0.45)" stroke="#6a3a4a" stroke-width="1"/>
    <rect x="320" y="310" width="55" height="55" fill="rgba(160,80,110,0.30)" stroke="#6a3a4a" stroke-width="1"/>
    <rect x="380" y="310" width="55" height="55" fill="rgba(180,100,130,0.35)" stroke="#6a3a4a" stroke-width="1"/>
    <rect x="440" y="310" width="55" height="55" fill="rgba(150,70,100,0.30)" stroke="#6a3a4a" stroke-width="1"/>

    <!-- Row 6 (Layer 4, bottom) -->
    <rect x="20"  y="370" width="55" height="55" fill="rgba(155,75,105,0.35)" stroke="#6a3a4a" stroke-width="1"/>
    <rect x="80"  y="370" width="55" height="55" fill="rgba(175,95,125,0.30)" stroke="#6a3a4a" stroke-width="1"/>
    <rect x="140" y="370" width="55" height="55" fill="rgba(145,65,95,0.40)" stroke="#6a3a4a" stroke-width="1"/>
    <rect x="200" y="370" width="55" height="55" fill="rgba(165,85,115,0.35)" stroke="#6a3a4a" stroke-width="1"/>
    <rect x="260" y="370" width="55" height="55" fill="rgba(135,55,85,0.45)" stroke="#6a3a4a" stroke-width="1"/>
    <rect x="320" y="370" width="55" height="55" fill="rgba(155,75,105,0.30)" stroke="#6a3a4a" stroke-width="1"/>
    <rect x="380" y="370" width="55" height="55" fill="rgba(175,95,125,0.35)" stroke="#6a3a4a" stroke-width="1"/>
    <rect x="440" y="370" width="55" height="55" fill="rgba(145,65,95,0.30)" stroke="#6a3a4a" stroke-width="1"/>

    <!-- Row 7 (Layer 5, single row) -->
    <rect x="20"  y="430" width="55" height="55" fill="rgba(80,100,130,0.35)" stroke="#3a4a5a" stroke-width="1"/>
    <rect x="80"  y="430" width="55" height="55" fill="rgba(100,120,150,0.30)" stroke="#3a4a5a" stroke-width="1"/>
    <rect x="140" y="430" width="55" height="55" fill="rgba(70,90,120,0.40)" stroke="#3a4a5a" stroke-width="1"/>
    <rect x="200" y="430" width="55" height="55" fill="rgba(90,110,140,0.35)" stroke="#3a4a5a" stroke-width="1"/>
    <rect x="260" y="430" width="55" height="55" fill="rgba(60,80,110,0.45)" stroke="#3a4a5a" stroke-width="1"/>
    <rect x="320" y="430" width="55" height="55" fill="rgba(80,100,130,0.30)" stroke="#3a4a5a" stroke-width="1"/>
    <rect x="380" y="430" width="55" height="55" fill="rgba(100,120,150,0.35)" stroke="#3a4a5a" stroke-width="1"/>
    <rect x="440" y="430" width="55" height="55" fill="rgba(70,90,120,0.30)" stroke="#3a4a5a" stroke-width="1"/>

    <!-- ===== CUBE CENTRE DOTS (every other column) ===== -->
    <g fill="#1a1a2e" opacity="0.6">
      <circle cx="47"  cy="37"  r="2.5"/>
      <circle cx="167" cy="37"  r="2.5"/>
      <circle cx="287" cy="37"  r="2.5"/>
      <circle cx="407" cy="37"  r="2.5"/>
      <circle cx="47"  cy="97"  r="2.5"/>
      <circle cx="167" cy="97"  r="2.5"/>
      <circle cx="287" cy="97"  r="2.5"/>
      <circle cx="407" cy="97"  r="2.5"/>
      <circle cx="47"  cy="157" r="2.5"/>
      <circle cx="167" cy="157" r="2.5"/>
      <circle cx="287" cy="157" r="2.5"/>
      <circle cx="407" cy="157" r="2.5"/>
      <circle cx="47"  cy="277" r="2.5"/>
      <circle cx="167" cy="277" r="2.5"/>
      <circle cx="287" cy="277" r="2.5"/>
      <circle cx="407" cy="277" r="2.5"/>
      <circle cx="47"  cy="337" r="2.5"/>
      <circle cx="167" cy="337" r="2.5"/>
      <circle cx="287" cy="337" r="2.5"/>
      <circle cx="407" cy="337" r="2.5"/>
      <circle cx="47"  cy="457" r="2.5"/>
      <circle cx="167" cy="457" r="2.5"/>
      <circle cx="287" cy="457" r="2.5"/>
      <circle cx="407" cy="457" r="2.5"/>
    </g>

    <!-- ===== HIGHLIGHT: T&#x2080; INTRA-SITE (row 3, col 2 → Layer 2) ===== -->
    <rect x="140" y="190" width="55" height="55" fill="rgba(230,180,50,0.5)" stroke="#d4a017" stroke-width="3" filter="url(#glowT0)"/>
    <circle cx="167" cy="217" r="4" fill="#d4a017"/>
    <!-- Self-scattering arcs -->
    <path d="M 155 205 Q 150 217, 158 228" fill="none" stroke="#8b6914" stroke-width="1.5" stroke-dasharray="3,2"/>
    <path d="M 178 228 Q 183 217, 176 205" fill="none" stroke="#8b6914" stroke-width="1.5" stroke-dasharray="3,2"/>
    <text x="167" y="240" text-anchor="middle" font-size="10" font-weight="bold" fill="#8b6914">T&#x2080;</text>

    <!-- ===== G&#x2080; INTER-SITE ARROWS ===== -->

    <!-- G&#x2080;: horizontal (same layer) -->
    <line x1="172" y1="217" x2="280" y2="217" stroke="#2980b9" stroke-width="2.2" marker-end="url(#arrowG0blue)" opacity="0.85"/>
    <text x="226" y="210" text-anchor="middle" font-size="9" fill="#2980b9" font-weight="bold">G&#x2080;</text>
    <text x="226" y="232" text-anchor="middle" font-size="7.5" fill="#2980b9" font-style="italic">(same layer)</text>

    <!-- G&#x2080;: crossing one interface (up to row 1 in Layer 1) -->
    <path d="M 172 217 Q 200 160, 167 97" fill="none" stroke="#c0392b" stroke-width="2.2" marker-end="url(#arrowG0)" opacity="0.85"/>
    <circle cx="185" cy="128" r="5" fill="none" stroke="#c0392b" stroke-width="1" stroke-dasharray="2,2" opacity="0.6"/>
    <text x="200" y="148" font-size="9" fill="#c0392b" font-weight="bold">G&#x2080;</text>
    <text x="200" y="160" font-size="7.5" fill="#c0392b" font-style="italic">(1 interface)</text>

    <!-- G&#x2080;: crossing multiple interfaces (up to row 0 in Layer 1) -->
    <path d="M 172 217 Q 320 180, 380 80, 407 37" fill="none" stroke="#c0392b" stroke-width="2.5" marker-end="url(#arrowG0)" opacity="0.9" stroke-dasharray="6,3"/>
    <circle cx="300" cy="128" r="5" fill="none" stroke="#c0392b" stroke-width="1.2" stroke-dasharray="2,2" opacity="0.5"/>
    <text x="370" y="125" font-size="9" fill="#c0392b" font-weight="bold">G&#x2080;</text>
    <text x="370" y="137" font-size="7.5" fill="#c0392b" font-style="italic">(multiple</text>
    <text x="370" y="148" font-size="7.5" fill="#c0392b" font-style="italic">interfaces)</text>

    <!-- ===== FREE SURFACE ===== -->
    <line x1="-10" y1="0" x2="530" y2="0" stroke="#1a1a2e" stroke-width="2.5"/>
    <text x="535" y="-4" font-size="10" fill="#1a1a2e" font-weight="bold">Free surface</text>

    <!-- ===== EXPLOSION SOURCE (filled star) ===== -->
    <polygon points="80,-18 83,-9 93,-9 85,-3 88,7 80,1 72,7 75,-3 67,-9 77,-9"
             fill="#1a1a2e" stroke="#c0392b" stroke-width="1"/>
    <text x="80" y="-24" text-anchor="middle" font-size="9" font-weight="bold" fill="#1a1a2e">Source</text>

    <!-- ===== INCIDENT WAVEFIELD u&#x2080; ===== -->
    <path d="M 50 10 Q 80 30, 110 10" fill="none" stroke="#2c3e50" stroke-width="1.2" opacity="0.5"/>
    <path d="M 35 30 Q 80 60, 125 30" fill="none" stroke="#2c3e50" stroke-width="1.0" opacity="0.4"/>
    <path d="M 20 55 Q 80 95, 140 55" fill="none" stroke="#2c3e50" stroke-width="0.8" opacity="0.3"/>
    <line x1="80" y1="0" x2="80" y2="60" stroke="#2c3e50" stroke-width="1.8" marker-end="url(#arrowWave)" opacity="0.7"/>
    <text x="92" y="40" font-size="10" fill="#2c3e50" font-weight="bold">u&#x2080;</text>
    <text x="92" y="52" font-size="8" fill="#2c3e50" font-style="italic">incident</text>

  </g>

  <!-- ===== RIGHT PANEL: Explanatory annotations ===== -->
  <g transform="translate(810, 85)">

    <!-- Box 1: Intra-site T&#x2080; -->
    <rect x="0" y="0" width="255" height="130" rx="8" fill="#fdf6e3" stroke="#d4a017" stroke-width="2"/>
    <text x="127" y="22" text-anchor="middle" font-size="13" font-weight="bold" fill="#8b6914">Intra-Site: T&#x2080;</text>
    <line x1="15" y1="30" x2="240" y2="30" stroke="#d4a017" stroke-width="0.5"/>
    <text x="15" y="48" font-size="10.5" fill="#333">Self-consistent scattering within</text>
    <text x="15" y="62" font-size="10.5" fill="#333">a single cube. Computed</text>
    <text x="15" y="76" font-size="10.5" fill="#333">analytically (Part II).</text>
    <text x="15" y="96" font-size="10.5" fill="#333">Absorbs all multiple scattering</text>
    <text x="15" y="110" font-size="10.5" fill="#333">inside the cell &#x2014; exact to O(ka)&#x2077;.</text>
    <text x="127" y="126" text-anchor="middle" font-size="10" fill="#8b6914" font-style="italic">&#x2714; Solved completely</text>

    <!-- Box 2: Inter-site G&#x2080; -->
    <rect x="0" y="148" width="255" height="210" rx="8" fill="#f0e6e6" stroke="#c0392b" stroke-width="2"/>
    <text x="127" y="170" text-anchor="middle" font-size="13" font-weight="bold" fill="#922b21">Inter-Site: G&#x2080;</text>
    <line x1="15" y1="178" x2="240" y2="178" stroke="#c0392b" stroke-width="0.5"/>
    <text x="15" y="196" font-size="10.5" fill="#333">Propagation between cube centres</text>
    <text x="15" y="210" font-size="10.5" fill="#333">through the layered medium.</text>
    <text x="15" y="230" font-size="10.5" fill="#922b21" font-weight="bold">Challenges:</text>
    <text x="15" y="246" font-size="10" fill="#333">&#x2022; Reflections at every interface</text>
    <text x="15" y="261" font-size="10" fill="#333">&#x2022; P &#x2194; SV mode conversions</text>
    <text x="15" y="276" font-size="10" fill="#333">&#x2022; Head waves, turning waves</text>
    <text x="15" y="291" font-size="10" fill="#333">&#x2022; Evanescent coupling near</text>
    <text x="25" y="304" font-size="10" fill="#333">critical angles</text>
    <text x="15" y="322" font-size="10.5" fill="#333">Computed via Kennett (1983)</text>
    <text x="15" y="336" font-size="10.5" fill="#333">reflectivity method.</text>
    <text x="127" y="354" text-anchor="middle" font-size="10" fill="#c0392b" font-style="italic">&#x2718; Computationally expensive</text>

    <!-- Box 3: Global T-matrix -->
    <rect x="0" y="376" width="255" height="115" rx="8" fill="#e8f0e8" stroke="#27774a" stroke-width="2"/>
    <text x="127" y="398" text-anchor="middle" font-size="13" font-weight="bold" fill="#1a5032">Global: T = T&#x2080;(I &#x2212; G&#x2080;T&#x2080;)&#x207B;&#xB9;</text>
    <line x1="15" y1="406" x2="240" y2="406" stroke="#27774a" stroke-width="0.5"/>
    <text x="15" y="424" font-size="10.5" fill="#333">Sums all multiple-scattering</text>
    <text x="15" y="438" font-size="10.5" fill="#333">paths between cubes to all</text>
    <text x="15" y="452" font-size="10.5" fill="#333">orders. Solved via Krylov</text>
    <text x="15" y="466" font-size="10.5" fill="#333">methods (Nestor, 1996) and</text>
    <text x="15" y="480" font-size="10.5" fill="#333">Fourier diagonalisation.</text>

  </g>

  <!-- ===== BOTTOM ANNOTATION ===== -->
  <g transform="translate(50, 590)">
    <rect x="0" y="0" width="1010" height="118" rx="6" fill="#f5f5f0" stroke="#888" stroke-width="0.8"/>

    <text x="15" y="20" font-size="11" font-weight="bold" fill="#1a1a2e">Key insight: cubes tile space</text>
    <text x="15" y="38" font-size="10" fill="#444">Every point in the medium belongs to exactly one cube. The T&#x2080; captures all physics inside each cell;</text>
    <text x="15" y="52" font-size="10" fill="#444">the G&#x2080; captures all physics between cells. Together, they give the complete wavefield.</text>

    <line x1="15" y1="62" x2="995" y2="62" stroke="#ccc" stroke-width="0.5"/>

    <text x="15" y="78" font-size="10" fill="#444">
      The G&#x2080; propagator is the bottleneck: in a layered medium it requires the Kennett reflectivity recursion</text>
    <text x="15" y="92" font-size="10" fill="#444">
      (wavenumber integration, reflection/transmission matrices at each interface, mode conversions) for every</text>
    <text x="15" y="106" font-size="10" fill="#444">
      pair of cube centres. Horizontal translational invariance allows 2D FFT acceleration.</text>
  </g>

</svg>
